<svg width="30" height="30" viewBox="0 0 30 30" fill="none" xmlns="http://www.w3.org/2000/svg">
<path d="M10.56 28.495C12 28.9078 13.455 29.1497 15 29.1497C18.9782 29.1497 22.7936 27.65 25.6066 24.9806C28.4196 22.3111 30 18.6905 30 14.9153C30 13.046 29.612 11.195 28.8582 9.46805C28.1044 7.74105 26.9995 6.17186 25.6066 4.85007C24.2137 3.52828 22.5601 2.47978 20.7403 1.76444C18.9204 1.04909 16.9698 0.680908 15 0.680908C13.0302 0.680908 11.0796 1.04909 9.25975 1.76444C7.43986 2.47978 5.78628 3.52828 4.3934 4.85007C1.58035 7.51954 0 11.1401 0 14.9153C0 20.965 4.005 26.1605 9.66 28.2103C9.525 27.1 9.39 25.2637 9.66 23.9969L11.385 16.9651C11.385 16.9651 10.95 16.1395 10.95 14.8299C10.95 12.8656 12.24 11.3994 13.71 11.3994C15 11.3994 15.6 12.2962 15.6 13.4492C15.6 14.6733 14.745 16.4242 14.31 18.1038C14.055 19.4988 15.09 20.723 16.59 20.723C19.26 20.723 21.33 18.0184 21.33 14.2036C21.33 10.7873 18.75 8.4529 15.045 8.4529C10.815 8.4529 8.325 11.4421 8.325 14.5879C8.325 15.8121 8.745 17.0505 9.435 17.8618C9.57 17.9473 9.57 18.0611 9.525 18.2746L9.09 19.8262C9.09 20.0682 8.925 20.1536 8.67 19.9828C6.75 19.1856 5.64 16.595 5.64 14.5025C5.64 10.0044 9 5.91917 15.48 5.91917C20.64 5.91917 24.66 9.43507 24.66 14.104C24.66 19.0006 21.465 22.9293 16.89 22.9293C15.435 22.9293 14.01 22.1891 13.5 21.3208L12.495 24.6944C12.15 25.9185 11.205 27.5555 10.56 28.5377V28.495Z" fill="#BB271A"/>
</svg>
