<svg width="22" height="25" viewBox="0 0 22 25" fill="none" xmlns="http://www.w3.org/2000/svg">
<path fill-rule="evenodd" clip-rule="evenodd" d="M15.4238 16.0317L20.8636 22.7072C21.0548 22.942 21.1622 23.2604 21.1621 23.5924C21.162 23.9243 21.0544 24.2426 20.8631 24.4772C20.6718 24.7119 20.4123 24.8436 20.1418 24.8435C19.8713 24.8434 19.6119 24.7114 19.4207 24.4766L13.9809 17.8011C12.3547 19.3468 10.3098 20.0741 8.26214 19.8352C6.21447 19.5963 4.31786 18.4091 2.95816 16.5152C1.59845 14.6212 0.877785 12.1627 0.942761 9.63981C1.00774 7.11694 1.85348 4.71919 3.30793 2.93436C4.76238 1.14952 6.71629 0.111672 8.77217 0.0319362C10.828 -0.0477993 12.8315 0.83657 14.3749 2.50514C15.9183 4.1737 16.8857 6.50112 17.0804 9.01393C17.275 11.5267 16.6823 14.0362 15.4228 16.0317H15.4238ZM9.02844 17.3979C10.6374 17.3979 12.1805 16.6135 13.3183 15.2173C14.456 13.8212 15.0952 11.9275 15.0952 9.95306C15.0952 7.97857 14.456 6.08496 13.3183 4.68879C12.1805 3.29262 10.6374 2.50826 9.02844 2.50826C7.41945 2.50826 5.87635 3.29262 4.73862 4.68879C3.60089 6.08496 2.96172 7.97857 2.96172 9.95306C2.96172 11.9275 3.60089 13.8212 4.73862 15.2173C5.87635 16.6135 7.41945 17.3979 9.02844 17.3979Z" fill="white"/>
</svg>
